<svg xmlns="http://www.w3.org/2000/svg" width="760" height="860" viewBox="0 0 760 860" role="img" aria-labelledby="title desc">
<title id="title">万金泪冠 · 三角洲行动漫画贴纸</title>
<desc id="desc">万金泪冠的漫画风矢量插画，白色撕纸底、黑色轮廓与文字，轮廓以外透明。造型参考：https://gl.ali213.net/html/2025-12/1726225.html 。</desc>
<defs><clipPath id="paper"><path d="M78 126 120 105 142 117 188 88 223 99 278 80 304 95 358 75 385 92 441 79 469 94 525 80 551 100 603 88 591 118 655 105 641 151 686 145 666 201 691 224 673 266 695 289 676 331 694 362 675 407 693 441 674 480 692 519 671 553 692 586 673 621 689 662 666 696 681 731 645 742 654 780 601 768 578 790 535 778 507 795 460 779 432 796 381 782 350 798 302 783 274 797 230 782 202 794 163 774 126 785 137 754 78 765 92 726 61 706 80 670 63 636 80 599 65 565 83 531 65 496 82 461 65 426 81 389 63 354 80 319 64 286 82 250 65 222 88 183 64 163Z"/></clipPath><pattern id="dots" width="13" height="13" patternUnits="userSpaceOnUse"><circle cx="3" cy="3" r="2" fill="#151719"/></pattern></defs>
<g id="comic-paper"><path d="M78 126 120 105 142 117 188 88 223 99 278 80 304 95 358 75 385 92 441 79 469 94 525 80 551 100 603 88 591 118 655 105 641 151 686 145 666 201 691 224 673 266 695 289 676 331 694 362 675 407 693 441 674 480 692 519 671 553 692 586 673 621 689 662 666 696 681 731 645 742 654 780 601 768 578 790 535 778 507 795 460 779 432 796 381 782 350 798 302 783 274 797 230 782 202 794 163 774 126 785 137 754 78 765 92 726 61 706 80 670 63 636 80 599 65 565 83 531 65 496 82 461 65 426 81 389 63 354 80 319 64 286 82 250 65 222 88 183 64 163Z" fill="white" stroke="#151719" stroke-width="8" stroke-linejoin="round" stroke-linecap="round" /><g clip-path="url(#paper)"><circle cx="380" cy="345" r="232" fill="#efc45d" opacity="0.15"/><path d="M90 160 324 110 170 325Z M490 439 682 287 680 636 473 608Z" fill="url(#dots)" opacity="0.26"/><path d="M115 184 221 235 134 205Z" fill="#151719" stroke="none" stroke-width="0" stroke-linejoin="round" stroke-linecap="round" /><path d="M151 136 240 229 172 173Z" fill="#151719" stroke="none" stroke-width="0" stroke-linejoin="round" stroke-linecap="round" /><path d="M603 145 516 236 583 166Z" fill="#151719" stroke="none" stroke-width="0" stroke-linejoin="round" stroke-linecap="round" /><path d="M658 216 543 266 638 235Z" fill="#151719" stroke="none" stroke-width="0" stroke-linejoin="round" stroke-linecap="round" /><path d="M105 443 206 419 118 455Z" fill="#151719" stroke="none" stroke-width="0" stroke-linejoin="round" stroke-linecap="round" /><path d="M605 477 549 444 642 490Z" fill="#151719" stroke="none" stroke-width="0" stroke-linejoin="round" stroke-linecap="round" /><path d="M593 573 526 506 624 568Z" fill="#151719" stroke="none" stroke-width="0" stroke-linejoin="round" stroke-linecap="round" /></g><path d="M139 652 619 641 639 728 119 742Z" fill="#ffffff" stroke="#151719" stroke-width="5" stroke-linejoin="round" stroke-linecap="round" /><path d="M156 640 284 637" fill="#efc45d" stroke="#efc45d" stroke-width="9" stroke-linejoin="round" stroke-linecap="round" /><path d="M952 -241Q916 -61 880 69Q1123 59 1221 59Q1293 59 1328.0 71.0Q1363 83 1386.0 109.5Q1409 136 1416.0 170.5Q1423 205 1431.5 401.5Q1440 598 1442 749H818Q787 109 248 -281Q144 -147 30 -17Q256 130 370.5 314.5Q485 499 503.0 669.5Q521 840 529 1303H74V1579H1976V1303H835L827 1013H1758L1735 390L1726 211Q1726 4 1653.0 -105.0Q1580 -214 1450.0 -226.5Q1320 -239 952 -241Z" transform="translate(252.000 710) scale(0.031250 -0.031250)" fill="#151719"/><path d="M84 33H512Q434 137 314 281L546 421Q650 301 762 155L568 33H874V425H244V669H874V837H492V999Q346 905 182 815Q110 933 16 1075Q620 1335 900 1695H1306L1216 1605Q1526 1281 2032 1117Q1938 963 1870 847Q1706 923 1564 1007V837H1172V669H1804V425H1504L1748 297Q1638 155 1536 33H1968V-211H84ZM1028 1433Q848 1249 610 1081H1446Q1204 1241 1028 1433ZM1494 425H1172V33H1482L1290 139Q1400 283 1494 425Z" transform="translate(316.000 710) scale(0.031250 -0.031250)" fill="#151719"/><path d="M280 1683Q484 1531 616 1411L434 1219Q348 1305 112 1501ZM680 1589H1936V-271H1656V-175H960V-271H680ZM960 1085H1656V1333H960ZM1656 833H960V585H1656ZM1656 333H960V81H1656ZM190 1171Q366 1047 562 887L378 681Q268 785 26 975ZM280 609Q452 543 548 519L328 -259Q184 -211 52 -179Q170 163 280 609Z" transform="translate(380.000 710) scale(0.031250 -0.031250)" fill="#151719"/><path d="M1030 1107H1500V1283H1686V1353H362V1205H90V1609H1958V1205H1746V1107H1968V875H1746V429Q1746 276 1690.0 195.5Q1634 115 1535.5 104.5Q1437 94 1192 97Q1174 213 1136 353Q1289 343 1374 343Q1500 343 1500 461V875H1030ZM952 957H160V1181H952ZM1252 845Q1392 681 1466 571L1266 443Q1170 603 1068 729ZM1048 557H902V107Q902 7 1000 7H1602Q1691 7 1729.5 65.5Q1768 124 1788 365Q1902 309 2032 261Q1989 -4 1951.5 -80.0Q1914 -156 1839.5 -196.0Q1765 -236 1652 -237H902Q644 -237 644 31V557H525Q519 157 421.0 -19.5Q323 -196 206 -277Q132 -183 18 -71Q102 -18 182.0 109.0Q262 236 268 557H60V789H1048Z" transform="translate(444.000 710) scale(0.031250 -0.031250)" fill="#151719"/><path d="M184 1537H1860V1241H184ZM274 861H1770V573H274ZM60 149H1992V-147H60Z" transform="translate(332.500 761) scale(0.009277 -0.009277)" fill="#151719"/><path d="M576 1709H894Q865 1647 832 1587H1568V1369L1445 1209H1834V35Q1834 -88 1788.5 -156.5Q1743 -225 1661.0 -240.0Q1579 -255 1308 -253Q1290 -119 1252 9Q1348 1 1462 1Q1558 1 1558 127V195H1192V-231H916V195H535Q479 -93 310 -277Q210 -183 70 -73Q288 165 288 599V947L224 897Q148 993 34 1083Q380 1353 576 1709ZM563 1209H1097L1218 1371H694Q633 1288 563 1209ZM1558 975H1192V799H1558ZM564 799H916V975H564ZM1192 409H1558V585H1192ZM561 409H916V585H564Q564 511 561 409Z" transform="translate(351.500 761) scale(0.009277 -0.009277)" fill="#151719"/><path d="M234 1693Q352 1605 576 1419L390 1225Q236 1381 68 1519ZM1092 1173Q1148 1003 1210 755V1601H1456V1143L1576 1165Q1627 1008 1680 797V1673H1944V-253H1680V585L1570 557Q1527 751 1456 1004V-131H1210V597L1086 565Q1050 725 988 948V717Q988 79 658 -283Q566 -145 480 -59Q732 285 732 797V1030Q667 758 580 507L390 579Q500 885 574 1223L732 1181V1685H988V1153ZM184 1159Q312 1063 476 919L306 721Q186 841 30 979ZM232 591Q354 541 490 497L300 -259Q168 -213 36 -177Q140 151 232 591Z" transform="translate(370.500 761) scale(0.009277 -0.009277)" fill="#151719"/><path d="M532 1711Q660 1623 772 1539Q562 1295 214 1017Q140 1129 36 1253Q372 1509 532 1711ZM892 1569H1932V1309H892ZM564 1191 798 1041Q710 912 606 788V-249H328V488Q236 399 136 313Q96 425 26 591Q334 857 564 1191ZM826 997H2020V737H1708V93Q1708 -67 1633.5 -151.5Q1559 -236 1422.5 -245.0Q1286 -254 1018 -257Q990 -125 944 23Q1152 9 1272 9Q1418 9 1418 163V737H826Z" transform="translate(389.500 761) scale(0.009277 -0.009277)" fill="#151719"/><path d="M790 697 1003 193Q1140 441 1137 1101H934V1365H1143L1146 1705H1412L1408 1365H1932L1909 235Q1903 7 1889.5 -50.0Q1876 -107 1834.0 -151.5Q1792 -196 1724.0 -216.0Q1656 -236 1366 -239Q1334 -87 1294 61Q1426 53 1513 53Q1571 53 1602.0 76.0Q1633 99 1638.5 142.5Q1644 186 1651.5 449.5Q1659 713 1662 1101H1403Q1394 655 1367.0 462.5Q1340 270 1256.0 73.0Q1172 -124 1038 -277Q924 -187 794 -109Q852 -50 900 16L345 -31Q220 -46 154 -73L30 169Q135 254 287 797H38V1053H962V797H578Q485 510 380 239Q562 244 709 252Q637 453 568 623ZM892 1301H124V1557H892Z" transform="translate(408.500 761) scale(0.009277 -0.009277)" fill="#151719"/><path d="M196 754H265 M495 754H564" fill="#151719" stroke="#151719" stroke-width="2" stroke-linejoin="round" stroke-linecap="round" /></g><g id="collectible"><g transform="rotate(-7 380 365)"><path d="M231 381 246 496Q374 572 528 488L544 381Z" fill="#cf952e" stroke="#151719" stroke-width="7" stroke-linejoin="round" stroke-linecap="round" /><path d="M251 427Q383 486 526 423L520 473Q388 543 255 477Z" fill="#fff3c6" stroke="#151719" stroke-width="4" stroke-linejoin="round" stroke-linecap="round" /><ellipse cx="386" cy="382" rx="158" ry="67" fill="#ddaf47" stroke="#151719" stroke-width="7" /><ellipse cx="386" cy="379" rx="137" ry="48" fill="#132d50" stroke="#151719" stroke-width="4" /><path d="M271 395Q312 383 338 406L421 397 468 418 427 439 347 434 301 419Z" fill="#c5e5e5" stroke="#151719" stroke-width="3" stroke-linejoin="round" stroke-linecap="round" /><path d="M302 405 336 416 370 407 393 420 430 412" fill="none" stroke="#537980" stroke-width="3" stroke-linejoin="round" stroke-linecap="round" /><path d="M304 347 296 294 326 321 352 282 378 319 409 288 432 324 459 302 452 358Q381 388 304 347Z" fill="#efc04c" stroke="#151719" stroke-width="5" stroke-linejoin="round" stroke-linecap="round" /><path d="M310 344Q380 371 448 349L445 368Q376 389 311 362Z" fill="#fff0a3" stroke="#151719" stroke-width="4" stroke-linejoin="round" stroke-linecap="round" /><ellipse cx="302" cy="294" rx="7" ry="8" fill="#f8da72" stroke="#151719" stroke-width="3" /><ellipse cx="352" cy="281" rx="7" ry="8" fill="#f8da72" stroke="#151719" stroke-width="3" /><ellipse cx="409" cy="287" rx="7" ry="8" fill="#f8da72" stroke="#151719" stroke-width="3" /><ellipse cx="459" cy="302" rx="7" ry="8" fill="#f8da72" stroke="#151719" stroke-width="3" /><path d="M327.00,333.00 335.00,343.00 327.00,353.00 319.00,343.00Z" fill="#1680ca" stroke="#151719" stroke-width="2" stroke-linejoin="round" stroke-linecap="round" /><path d="M378.00,339.00 386.00,349.00 378.00,359.00 370.00,349.00Z" fill="#1680ca" stroke="#151719" stroke-width="2" stroke-linejoin="round" stroke-linecap="round" /><path d="M425.00,335.00 433.00,345.00 425.00,355.00 417.00,345.00Z" fill="#1680ca" stroke="#151719" stroke-width="2" stroke-linejoin="round" stroke-linecap="round" /><path d="M227 263Q224 164 361 163Q487 163 532 274L503 309 245 291Z" fill="#fff5d6" stroke="#151719" stroke-width="7" stroke-linejoin="round" stroke-linecap="round" /><path d="M227 263Q370 234 532 274L523 298Q377 262 239 288Z" fill="#d3a23b" stroke="#151719" stroke-width="5" stroke-linejoin="round" stroke-linecap="round" /><path d="M248 217Q317 169 383 184M392 187Q454 202 489 247" fill="none" stroke="#d7ad42" stroke-width="8" stroke-linejoin="round" stroke-linecap="round" /><path d="M268 212Q280 190 292 212Q280 233 268 212Z" fill="#e9c45e" stroke="#151719" stroke-width="2" stroke-linejoin="round" stroke-linecap="round" /><ellipse cx="280" cy="212" rx="5" ry="7" fill="#239ca2" stroke="#151719" stroke-width="1.5" /><path d="M326 192Q338 170 350 192Q338 213 326 192Z" fill="#e9c45e" stroke="#151719" stroke-width="2" stroke-linejoin="round" stroke-linecap="round" /><ellipse cx="338" cy="192" rx="5" ry="7" fill="#239ca2" stroke="#151719" stroke-width="1.5" /><path d="M389 202Q401 180 413 202Q401 223 389 202Z" fill="#e9c45e" stroke="#151719" stroke-width="2" stroke-linejoin="round" stroke-linecap="round" /><ellipse cx="401" cy="202" rx="5" ry="7" fill="#239ca2" stroke="#151719" stroke-width="1.5" /><path d="M448 236Q460 214 472 236Q460 257 448 236Z" fill="#e9c45e" stroke="#151719" stroke-width="2" stroke-linejoin="round" stroke-linecap="round" /><ellipse cx="460" cy="236" rx="5" ry="7" fill="#239ca2" stroke="#151719" stroke-width="1.5" /><path d="M278.00,445.00 286.00,454.00 278.00,463.00 270.00,454.00Z" fill="#287eaa" stroke="#151719" stroke-width="2" stroke-linejoin="round" stroke-linecap="round" /><path d="M316.00,458.00 324.00,467.00 316.00,476.00 308.00,467.00Z" fill="#287eaa" stroke="#151719" stroke-width="2" stroke-linejoin="round" stroke-linecap="round" /><path d="M357.00,467.00 365.00,476.00 357.00,485.00 349.00,476.00Z" fill="#287eaa" stroke="#151719" stroke-width="2" stroke-linejoin="round" stroke-linecap="round" /><path d="M398.00,468.00 406.00,477.00 398.00,486.00 390.00,477.00Z" fill="#287eaa" stroke="#151719" stroke-width="2" stroke-linejoin="round" stroke-linecap="round" /><path d="M440.00,458.00 448.00,467.00 440.00,476.00 432.00,467.00Z" fill="#287eaa" stroke="#151719" stroke-width="2" stroke-linejoin="round" stroke-linecap="round" /><path d="M484.00,443.00 492.00,452.00 484.00,461.00 476.00,452.00Z" fill="#287eaa" stroke="#151719" stroke-width="2" stroke-linejoin="round" stroke-linecap="round" /><path d="M259 495Q382 554 513 490" fill="none" stroke="#ffeaa0" stroke-width="8" stroke-linejoin="round" stroke-linecap="round" /><path d="M274 276 282 302 311 296 306 271Z" fill="#ffdf79" stroke="#151719" stroke-width="3" stroke-linejoin="round" stroke-linecap="round" /></g><path d="M541 202 Q544 227 569 230 Q544 233 541 258 Q538 233 513 230 Q538 227 541 202Z" fill="#ffffff" stroke="#151719" stroke-width="3" stroke-linejoin="round" stroke-linecap="round" /><path d="M209 409 Q212 427 230 430 Q212 433 209 451 Q206 433 188 430 Q206 427 209 409Z" fill="#ffffff" stroke="#151719" stroke-width="3" stroke-linejoin="round" stroke-linecap="round" /></g></svg>