<svg xmlns="http://www.w3.org/2000/svg" width="760" height="860" viewBox="0 0 760 860" role="img" aria-labelledby="title desc">
<title id="title">印象派名画 · 三角洲行动漫画贴纸</title>
<desc id="desc">印象派名画的漫画风矢量插画，白色撕纸底、黑色轮廓与文字，轮廓以外透明。造型参考：https://gl.ali213.net/html/2025-12/1726225.html 。</desc>
<defs><clipPath id="paper"><path d="M78 126 120 105 142 117 188 88 223 99 278 80 304 95 358 75 385 92 441 79 469 94 525 80 551 100 603 88 591 118 655 105 641 151 686 145 666 201 691 224 673 266 695 289 676 331 694 362 675 407 693 441 674 480 692 519 671 553 692 586 673 621 689 662 666 696 681 731 645 742 654 780 601 768 578 790 535 778 507 795 460 779 432 796 381 782 350 798 302 783 274 797 230 782 202 794 163 774 126 785 137 754 78 765 92 726 61 706 80 670 63 636 80 599 65 565 83 531 65 496 82 461 65 426 81 389 63 354 80 319 64 286 82 250 65 222 88 183 64 163Z"/></clipPath><pattern id="dots" width="13" height="13" patternUnits="userSpaceOnUse"><circle cx="3" cy="3" r="2" fill="#151719"/></pattern></defs>
<g id="comic-paper"><path d="M78 126 120 105 142 117 188 88 223 99 278 80 304 95 358 75 385 92 441 79 469 94 525 80 551 100 603 88 591 118 655 105 641 151 686 145 666 201 691 224 673 266 695 289 676 331 694 362 675 407 693 441 674 480 692 519 671 553 692 586 673 621 689 662 666 696 681 731 645 742 654 780 601 768 578 790 535 778 507 795 460 779 432 796 381 782 350 798 302 783 274 797 230 782 202 794 163 774 126 785 137 754 78 765 92 726 61 706 80 670 63 636 80 599 65 565 83 531 65 496 82 461 65 426 81 389 63 354 80 319 64 286 82 250 65 222 88 183 64 163Z" fill="white" stroke="#151719" stroke-width="8" stroke-linejoin="round" stroke-linecap="round" /><g clip-path="url(#paper)"><circle cx="380" cy="345" r="232" fill="#dfab69" opacity="0.15"/><path d="M90 160 324 110 170 325Z M490 439 682 287 680 636 473 608Z" fill="url(#dots)" opacity="0.26"/><path d="M115 184 221 235 134 205Z" fill="#151719" stroke="none" stroke-width="0" stroke-linejoin="round" stroke-linecap="round" /><path d="M151 136 240 229 172 173Z" fill="#151719" stroke="none" stroke-width="0" stroke-linejoin="round" stroke-linecap="round" /><path d="M603 145 516 236 583 166Z" fill="#151719" stroke="none" stroke-width="0" stroke-linejoin="round" stroke-linecap="round" /><path d="M658 216 543 266 638 235Z" fill="#151719" stroke="none" stroke-width="0" stroke-linejoin="round" stroke-linecap="round" /><path d="M105 443 206 419 118 455Z" fill="#151719" stroke="none" stroke-width="0" stroke-linejoin="round" stroke-linecap="round" /><path d="M605 477 549 444 642 490Z" fill="#151719" stroke="none" stroke-width="0" stroke-linejoin="round" stroke-linecap="round" /><path d="M593 573 526 506 624 568Z" fill="#151719" stroke="none" stroke-width="0" stroke-linejoin="round" stroke-linecap="round" /></g><path d="M139 652 619 641 639 728 119 742Z" fill="#ffffff" stroke="#151719" stroke-width="5" stroke-linejoin="round" stroke-linecap="round" /><path d="M156 640 284 637" fill="#dfab69" stroke="#dfab69" stroke-width="9" stroke-linejoin="round" stroke-linecap="round" /><path d="M1008 1477Q742 1413 426 1351V1029H924V757H426V303L938 449Q944 295 956 171Q641 88 476.0 31.0Q311 -26 226 -101L96 127Q154 179 154 313V1535Q548 1607 896 1715ZM1020 1557H1912V297Q1912 41 1648 41H1384Q1374 187 1358 321Q1521 307 1578 307Q1652 307 1652 387V1285H1292V-257H1020Z" transform="translate(220.000 710) scale(0.031250 -0.031250)" fill="#151719"/><path d="M618 1707H932Q884 1641 831 1579H1600V1397L1442 1269H1902V757H1757L1878 583L1592 450Q1762 163 2020 7Q1888 -109 1804 -199Q1568 -4 1387 357L1296 317Q1339 187 1339 63Q1339 -104 969 -267H664Q641 -173 608 -65Q398 -172 138 -257Q96 -161 30 -39Q600 96 979 394Q962 428 939 464Q627 242 160 93Q120 181 64 285Q570 392 864 568Q841 596 815 626Q561 502 136 401Q94 489 34 593Q435 659 643 757H182V1122Q122 1179 34 1253Q414 1457 618 1707ZM492 1269H1096L1242 1395H649Q575 1329 492 1269ZM1648 949V1077H1209Q1187 1005 1166 949ZM436 949H866Q896 1003 917 1077H436ZM1661 757H1029Q1018 748 1006 739Q1122 637 1197 521Q1418 618 1661 757ZM1039 224Q886 87 681 -25Q822 -35 893 -35Q1052 -35 1052 121Q1052 166 1039 224Z" transform="translate(284.000 710) scale(0.031250 -0.031250)" fill="#151719"/><path d="M234 1693Q406 1569 582 1425L390 1225Q236 1383 68 1519ZM612 1513Q1216 1541 1898 1637L1980 1391Q1224 1295 874 1277V717Q874 409 825.5 178.5Q777 -52 644 -279Q602 -231 416 -87Q612 189 612 699ZM1234 107Q1344 163 1482 225Q1484 159 1514 -15Q1142 -185 1042 -283L902 -89Q990 -3 988 139V1117Q1442 1157 1852 1243L1956 1009Q1750 967 1573 939Q1597 797 1632 672Q1769 739 1896 817L2024 605Q1848 519 1705 460Q1832 163 2030 5L1832 -243Q1438 173 1348 909Q1289 903 1234 899ZM192 1159Q378 1021 528 889L348 681L30 969ZM232 591Q392 527 490 497L300 -259Q168 -213 36 -177Q140 153 232 591Z" transform="translate(348.000 710) scale(0.031250 -0.031250)" fill="#151719"/><path d="M362 -265V401Q260 367 152 335Q108 433 30 577Q439 670 768 815Q623 925 524 989L720 1169Q886 1061 1043 954Q1277 1088 1460 1257H651Q470 1059 226 893Q158 973 46 1093Q430 1355 644 1711L956 1689Q907 1594 847 1505H1834V1263Q1547 921 1004 657H1850V-259H1562V-169H650V-265ZM1562 407H650V81H1562Z" transform="translate(412.000 710) scale(0.031250 -0.031250)" fill="#151719"/><path d="M58 1599H1988V1379H58ZM500 1249H1552V181H500ZM1308 1057H1138V801H1308ZM744 801H914V1057H744ZM1308 373V629H1138V373ZM744 373H914V629H744ZM1936 1197V-269H1684V-161H116V1197H368V57H1684V1197Z" transform="translate(476.000 710) scale(0.031250 -0.031250)" fill="#151719"/><path d="M184 1537H1860V1241H184ZM274 861H1770V573H274ZM60 149H1992V-147H60Z" transform="translate(332.500 761) scale(0.009277 -0.009277)" fill="#151719"/><path d="M576 1709H894Q865 1647 832 1587H1568V1369L1445 1209H1834V35Q1834 -88 1788.5 -156.5Q1743 -225 1661.0 -240.0Q1579 -255 1308 -253Q1290 -119 1252 9Q1348 1 1462 1Q1558 1 1558 127V195H1192V-231H916V195H535Q479 -93 310 -277Q210 -183 70 -73Q288 165 288 599V947L224 897Q148 993 34 1083Q380 1353 576 1709ZM563 1209H1097L1218 1371H694Q633 1288 563 1209ZM1558 975H1192V799H1558ZM564 799H916V975H564ZM1192 409H1558V585H1192ZM561 409H916V585H564Q564 511 561 409Z" transform="translate(351.500 761) scale(0.009277 -0.009277)" fill="#151719"/><path d="M234 1693Q352 1605 576 1419L390 1225Q236 1381 68 1519ZM1092 1173Q1148 1003 1210 755V1601H1456V1143L1576 1165Q1627 1008 1680 797V1673H1944V-253H1680V585L1570 557Q1527 751 1456 1004V-131H1210V597L1086 565Q1050 725 988 948V717Q988 79 658 -283Q566 -145 480 -59Q732 285 732 797V1030Q667 758 580 507L390 579Q500 885 574 1223L732 1181V1685H988V1153ZM184 1159Q312 1063 476 919L306 721Q186 841 30 979ZM232 591Q354 541 490 497L300 -259Q168 -213 36 -177Q140 151 232 591Z" transform="translate(370.500 761) scale(0.009277 -0.009277)" fill="#151719"/><path d="M532 1711Q660 1623 772 1539Q562 1295 214 1017Q140 1129 36 1253Q372 1509 532 1711ZM892 1569H1932V1309H892ZM564 1191 798 1041Q710 912 606 788V-249H328V488Q236 399 136 313Q96 425 26 591Q334 857 564 1191ZM826 997H2020V737H1708V93Q1708 -67 1633.5 -151.5Q1559 -236 1422.5 -245.0Q1286 -254 1018 -257Q990 -125 944 23Q1152 9 1272 9Q1418 9 1418 163V737H826Z" transform="translate(389.500 761) scale(0.009277 -0.009277)" fill="#151719"/><path d="M790 697 1003 193Q1140 441 1137 1101H934V1365H1143L1146 1705H1412L1408 1365H1932L1909 235Q1903 7 1889.5 -50.0Q1876 -107 1834.0 -151.5Q1792 -196 1724.0 -216.0Q1656 -236 1366 -239Q1334 -87 1294 61Q1426 53 1513 53Q1571 53 1602.0 76.0Q1633 99 1638.5 142.5Q1644 186 1651.5 449.5Q1659 713 1662 1101H1403Q1394 655 1367.0 462.5Q1340 270 1256.0 73.0Q1172 -124 1038 -277Q924 -187 794 -109Q852 -50 900 16L345 -31Q220 -46 154 -73L30 169Q135 254 287 797H38V1053H962V797H578Q485 510 380 239Q562 244 709 252Q637 453 568 623ZM892 1301H124V1557H892Z" transform="translate(408.500 761) scale(0.009277 -0.009277)" fill="#151719"/><path d="M196 754H265 M495 754H564" fill="#151719" stroke="#151719" stroke-width="2" stroke-linejoin="round" stroke-linecap="round" /></g><g id="collectible"><g transform="rotate(5 380 354)"><path d="M228 164 527 164 539 546 215 546Z" fill="#ba7829" stroke="#151719" stroke-width="7" stroke-linejoin="round" stroke-linecap="round" /><path d="M237 177 515 177 525 530 227 530Z" fill="#f9d67a" stroke="#151719" stroke-width="4" stroke-linejoin="round" stroke-linecap="round" /><path d="M259 201 496 201 501 507 253 507Z" fill="#8a5024" stroke="#151719" stroke-width="4" stroke-linejoin="round" stroke-linecap="round" /><path d="M269 212 485 212 490 495 264 495Z" fill="#ede4a5" stroke="#151719" stroke-width="3" stroke-linejoin="round" stroke-linecap="round" /><path d="M280 224 473 224 477 482 276 482Z" fill="#9bb6a3" stroke="#151719" stroke-width="3" stroke-linejoin="round" stroke-linecap="round" /><path d="M281 379 320 348 352 363 391 342 429 363 475 349 477 482 276 482Z" fill="#8d9b61" stroke="none" stroke-width="0" stroke-linejoin="round" stroke-linecap="round" /><path d="M346 482 365 404 384 362 405 345 395 407 395 482Z" fill="#d2b066" stroke="none" stroke-width="0" stroke-linejoin="round" stroke-linecap="round" /><path d="M291 427 295 245 312 231 317 412Z" fill="#ad703a" stroke="none" stroke-width="0" stroke-linejoin="round" stroke-linecap="round" /><path d="M318 430 329 228 346 238 345 423Z" fill="#c18c46" stroke="none" stroke-width="0" stroke-linejoin="round" stroke-linecap="round" /><path d="M412 424 420 227 434 240 429 438Z" fill="#945530" stroke="none" stroke-width="0" stroke-linejoin="round" stroke-linecap="round" /><path d="M449 422 452 253 463 268 470 436Z" fill="#887249" stroke="none" stroke-width="0" stroke-linejoin="round" stroke-linecap="round" /><path d="M334 404l7 -3" fill="none" stroke="#ce9851" stroke-width="2" stroke-linejoin="round" stroke-linecap="round" /><path d="M315 434l11 0" fill="none" stroke="#a1b599" stroke-width="3" stroke-linejoin="round" stroke-linecap="round" /><path d="M445 345l7 -3" fill="none" stroke="#a1b599" stroke-width="3" stroke-linejoin="round" stroke-linecap="round" /><path d="M460 455l4 -1" fill="none" stroke="#b58244" stroke-width="3" stroke-linejoin="round" stroke-linecap="round" /><path d="M338 388l11 -3" fill="none" stroke="#7e8d59" stroke-width="3" stroke-linejoin="round" stroke-linecap="round" /><path d="M432 243l4 -2" fill="none" stroke="#d1c885" stroke-width="2" stroke-linejoin="round" stroke-linecap="round" /><path d="M413 247l14 0" fill="none" stroke="#566e59" stroke-width="4" stroke-linejoin="round" stroke-linecap="round" /><path d="M364 453l14 -3" fill="none" stroke="#566e59" stroke-width="3" stroke-linejoin="round" stroke-linecap="round" /><path d="M297 461l8 -1" fill="none" stroke="#ce9851" stroke-width="5" stroke-linejoin="round" stroke-linecap="round" /><path d="M392 391l12 -1" fill="none" stroke="#d7ac5c" stroke-width="2" stroke-linejoin="round" stroke-linecap="round" /><path d="M302 268l12 -4" fill="none" stroke="#a1b599" stroke-width="2" stroke-linejoin="round" stroke-linecap="round" /><path d="M295 340l7 -2" fill="none" stroke="#ce9851" stroke-width="2" stroke-linejoin="round" stroke-linecap="round" /><path d="M422 319l5 -3" fill="none" stroke="#d1c885" stroke-width="2" stroke-linejoin="round" stroke-linecap="round" /><path d="M390 416l11 -4" fill="none" stroke="#d7ac5c" stroke-width="2" stroke-linejoin="round" stroke-linecap="round" /><path d="M373 260l14 -1" fill="none" stroke="#d1c885" stroke-width="2" stroke-linejoin="round" stroke-linecap="round" /><path d="M317 409l8 -2" fill="none" stroke="#d1c885" stroke-width="5" stroke-linejoin="round" stroke-linecap="round" /><path d="M371 369l11 -4" fill="none" stroke="#566e59" stroke-width="2" stroke-linejoin="round" stroke-linecap="round" /><path d="M294 274l13 0" fill="none" stroke="#ce9851" stroke-width="2" stroke-linejoin="round" stroke-linecap="round" /><path d="M441 445l15 -3" fill="none" stroke="#d7ac5c" stroke-width="3" stroke-linejoin="round" stroke-linecap="round" /><path d="M439 244l15 0" fill="none" stroke="#d1c885" stroke-width="5" stroke-linejoin="round" stroke-linecap="round" /><path d="M295 310l10 -1" fill="none" stroke="#d7ac5c" stroke-width="4" stroke-linejoin="round" stroke-linecap="round" /><path d="M326 466l5 0" fill="none" stroke="#ce9851" stroke-width="2" stroke-linejoin="round" stroke-linecap="round" /><path d="M288 452l14 -3" fill="none" stroke="#ce9851" stroke-width="2" stroke-linejoin="round" stroke-linecap="round" /><path d="M353 361l9 -4" fill="none" stroke="#a1b599" stroke-width="5" stroke-linejoin="round" stroke-linecap="round" /><path d="M290 261l5 -1" fill="none" stroke="#566e59" stroke-width="3" stroke-linejoin="round" stroke-linecap="round" /><path d="M361 295l6 -4" fill="none" stroke="#ce9851" stroke-width="5" stroke-linejoin="round" stroke-linecap="round" /><path d="M385 395l9 0" fill="none" stroke="#ce9851" stroke-width="2" stroke-linejoin="round" stroke-linecap="round" /><path d="M322 412l4 0" fill="none" stroke="#b58244" stroke-width="5" stroke-linejoin="round" stroke-linecap="round" /><path d="M345 318l5 -1" fill="none" stroke="#7e8d59" stroke-width="4" stroke-linejoin="round" stroke-linecap="round" /><path d="M394 356l7 -3" fill="none" stroke="#b58244" stroke-width="2" stroke-linejoin="round" stroke-linecap="round" /><path d="M417 469l15 0" fill="none" stroke="#d7ac5c" stroke-width="2" stroke-linejoin="round" stroke-linecap="round" /><path d="M337 290l5 -1" fill="none" stroke="#ce9851" stroke-width="3" stroke-linejoin="round" stroke-linecap="round" /><path d="M292 395l14 -4" fill="none" stroke="#b58244" stroke-width="3" stroke-linejoin="round" stroke-linecap="round" /><path d="M417 250l4 -3" fill="none" stroke="#566e59" stroke-width="2" stroke-linejoin="round" stroke-linecap="round" /><path d="M389 426l15 -1" fill="none" stroke="#7e8d59" stroke-width="3" stroke-linejoin="round" stroke-linecap="round" /><path d="M342 251l12 0" fill="none" stroke="#7e8d59" stroke-width="4" stroke-linejoin="round" stroke-linecap="round" /><path d="M389 285l14 -4" fill="none" stroke="#566e59" stroke-width="5" stroke-linejoin="round" stroke-linecap="round" /><path d="M366 301l8 -2" fill="none" stroke="#d1c885" stroke-width="5" stroke-linejoin="round" stroke-linecap="round" /><path d="M295 449l8 -3" fill="none" stroke="#d7ac5c" stroke-width="2" stroke-linejoin="round" stroke-linecap="round" /><path d="M437 440l8 -1" fill="none" stroke="#ce9851" stroke-width="4" stroke-linejoin="round" stroke-linecap="round" /><path d="M342 292l13 -2" fill="none" stroke="#ce9851" stroke-width="5" stroke-linejoin="round" stroke-linecap="round" /><path d="M460 391l4 -4" fill="none" stroke="#a1b599" stroke-width="4" stroke-linejoin="round" stroke-linecap="round" /><path d="M336 355l8 0" fill="none" stroke="#d1c885" stroke-width="2" stroke-linejoin="round" stroke-linecap="round" /><path d="M414 261l4 0" fill="none" stroke="#a1b599" stroke-width="2" stroke-linejoin="round" stroke-linecap="round" /><path d="M317 333l14 0" fill="none" stroke="#d1c885" stroke-width="4" stroke-linejoin="round" stroke-linecap="round" /><path d="M313 359l10 -3" fill="none" stroke="#d1c885" stroke-width="3" stroke-linejoin="round" stroke-linecap="round" /><path d="M389 300l13 -2" fill="none" stroke="#d1c885" stroke-width="2" stroke-linejoin="round" stroke-linecap="round" /><path d="M445 443l11 0" fill="none" stroke="#7e8d59" stroke-width="5" stroke-linejoin="round" stroke-linecap="round" /><path d="M339 304l6 0" fill="none" stroke="#7e8d59" stroke-width="3" stroke-linejoin="round" stroke-linecap="round" /><path d="M451 380l9 -1" fill="none" stroke="#d1c885" stroke-width="5" stroke-linejoin="round" stroke-linecap="round" /><path d="M295 386l13 -3" fill="none" stroke="#d7ac5c" stroke-width="5" stroke-linejoin="round" stroke-linecap="round" /><path d="M406 312l7 -3" fill="none" stroke="#a1b599" stroke-width="5" stroke-linejoin="round" stroke-linecap="round" /><path d="M406 288l6 0" fill="none" stroke="#7e8d59" stroke-width="2" stroke-linejoin="round" stroke-linecap="round" /><path d="M436 295l13 -1" fill="none" stroke="#d1c885" stroke-width="2" stroke-linejoin="round" stroke-linecap="round" /><path d="M310 305l14 -1" fill="none" stroke="#ce9851" stroke-width="5" stroke-linejoin="round" stroke-linecap="round" /><path d="M313 281l9 -4" fill="none" stroke="#566e59" stroke-width="5" stroke-linejoin="round" stroke-linecap="round" /><path d="M391 366l7 -2" fill="none" stroke="#b58244" stroke-width="2" stroke-linejoin="round" stroke-linecap="round" /><path d="M461 395l6 -4" fill="none" stroke="#566e59" stroke-width="4" stroke-linejoin="round" stroke-linecap="round" /><path d="M407 400l5 -3" fill="none" stroke="#ce9851" stroke-width="2" stroke-linejoin="round" stroke-linecap="round" /><path d="M360 273l13 -2" fill="none" stroke="#a1b599" stroke-width="5" stroke-linejoin="round" stroke-linecap="round" /><path d="M413 328l13 -2" fill="none" stroke="#d1c885" stroke-width="2" stroke-linejoin="round" stroke-linecap="round" /><path d="M455 322l15 -3" fill="none" stroke="#a1b599" stroke-width="2" stroke-linejoin="round" stroke-linecap="round" /><path d="M285 328l6 -2" fill="none" stroke="#7e8d59" stroke-width="3" stroke-linejoin="round" stroke-linecap="round" /><path d="M434 271l12 0" fill="none" stroke="#a1b599" stroke-width="4" stroke-linejoin="round" stroke-linecap="round" /><path d="M388 378l5 -1" fill="none" stroke="#a1b599" stroke-width="2" stroke-linejoin="round" stroke-linecap="round" /><path d="M342 369l15 -4" fill="none" stroke="#566e59" stroke-width="5" stroke-linejoin="round" stroke-linecap="round" /><path d="M323 436l6 -4" fill="none" stroke="#ce9851" stroke-width="2" stroke-linejoin="round" stroke-linecap="round" /><path d="M379 336l8 0" fill="none" stroke="#a1b599" stroke-width="4" stroke-linejoin="round" stroke-linecap="round" /><path d="M389 387l8 -3" fill="none" stroke="#ce9851" stroke-width="5" stroke-linejoin="round" stroke-linecap="round" /><path d="M433 288l4 -3" fill="none" stroke="#7e8d59" stroke-width="3" stroke-linejoin="round" stroke-linecap="round" /><path d="M445 298l6 -1" fill="none" stroke="#7e8d59" stroke-width="2" stroke-linejoin="round" stroke-linecap="round" /><path d="M373 373l11 -4" fill="none" stroke="#d7ac5c" stroke-width="3" stroke-linejoin="round" stroke-linecap="round" /><path d="M375 326l9 -3" fill="none" stroke="#566e59" stroke-width="4" stroke-linejoin="round" stroke-linecap="round" /><path d="M356 449l10 -2" fill="none" stroke="#566e59" stroke-width="5" stroke-linejoin="round" stroke-linecap="round" /><path d="M356 315l14 -4" fill="none" stroke="#7e8d59" stroke-width="5" stroke-linejoin="round" stroke-linecap="round" /><path d="M354 356l11 -2" fill="none" stroke="#a1b599" stroke-width="4" stroke-linejoin="round" stroke-linecap="round" /><path d="M455 387l4 -2" fill="none" stroke="#566e59" stroke-width="4" stroke-linejoin="round" stroke-linecap="round" /><path d="M454 282l14 -1" fill="none" stroke="#ce9851" stroke-width="3" stroke-linejoin="round" stroke-linecap="round" /><path d="M405 409l7 0" fill="none" stroke="#d7ac5c" stroke-width="4" stroke-linejoin="round" stroke-linecap="round" /><path d="M322 467l7 -3" fill="none" stroke="#7e8d59" stroke-width="2" stroke-linejoin="round" stroke-linecap="round" /><path d="M466 415l11 -2" fill="none" stroke="#d1c885" stroke-width="3" stroke-linejoin="round" stroke-linecap="round" /><path d="M414 313l10 -1" fill="none" stroke="#d1c885" stroke-width="2" stroke-linejoin="round" stroke-linecap="round" /><path d="M380 287l4 -4" fill="none" stroke="#d7ac5c" stroke-width="4" stroke-linejoin="round" stroke-linecap="round" /><path d="M370 284l9 -3" fill="none" stroke="#566e59" stroke-width="4" stroke-linejoin="round" stroke-linecap="round" /><path d="M295 256l5 -2" fill="none" stroke="#7e8d59" stroke-width="2" stroke-linejoin="round" stroke-linecap="round" /><path d="M401 366l4 -2" fill="none" stroke="#d7ac5c" stroke-width="4" stroke-linejoin="round" stroke-linecap="round" /><path d="M313 301l11 -2" fill="none" stroke="#7e8d59" stroke-width="5" stroke-linejoin="round" stroke-linecap="round" /><path d="M360 349l9 -2" fill="none" stroke="#7e8d59" stroke-width="3" stroke-linejoin="round" stroke-linecap="round" /><path d="M361 449l8 -3" fill="none" stroke="#ce9851" stroke-width="2" stroke-linejoin="round" stroke-linecap="round" /><path d="M442 325l5 0" fill="none" stroke="#d1c885" stroke-width="4" stroke-linejoin="round" stroke-linecap="round" /><path d="M298 259l15 0" fill="none" stroke="#a1b599" stroke-width="5" stroke-linejoin="round" stroke-linecap="round" /><path d="M343 363l15 0" fill="none" stroke="#ce9851" stroke-width="5" stroke-linejoin="round" stroke-linecap="round" /><path d="M302 468l10 -1" fill="none" stroke="#d1c885" stroke-width="3" stroke-linejoin="round" stroke-linecap="round" /><path d="M408 311l11 0" fill="none" stroke="#d1c885" stroke-width="4" stroke-linejoin="round" stroke-linecap="round" /><path d="M431 451l6 0" fill="none" stroke="#d7ac5c" stroke-width="2" stroke-linejoin="round" stroke-linecap="round" /><path d="M289 311l6 -4" fill="none" stroke="#a1b599" stroke-width="3" stroke-linejoin="round" stroke-linecap="round" /><path d="M436 406l9 -2" fill="none" stroke="#d7ac5c" stroke-width="3" stroke-linejoin="round" stroke-linecap="round" /><path d="M428 281l4 -4" fill="none" stroke="#7e8d59" stroke-width="5" stroke-linejoin="round" stroke-linecap="round" /><path d="M423 293l7 -4" fill="none" stroke="#b58244" stroke-width="4" stroke-linejoin="round" stroke-linecap="round" /><path d="M329 254l14 -4" fill="none" stroke="#d7ac5c" stroke-width="2" stroke-linejoin="round" stroke-linecap="round" /><path d="M390 380l4 0" fill="none" stroke="#a1b599" stroke-width="5" stroke-linejoin="round" stroke-linecap="round" /><path d="M371 283l8 -4" fill="none" stroke="#d1c885" stroke-width="4" stroke-linejoin="round" stroke-linecap="round" /><path d="M286 336l13 -2" fill="none" stroke="#b58244" stroke-width="5" stroke-linejoin="round" stroke-linecap="round" /><path d="M439 327l12 0" fill="none" stroke="#7e8d59" stroke-width="2" stroke-linejoin="round" stroke-linecap="round" /><path d="M365 356l10 -3" fill="none" stroke="#7e8d59" stroke-width="3" stroke-linejoin="round" stroke-linecap="round" /><path d="M337 433l5 -2" fill="none" stroke="#d1c885" stroke-width="5" stroke-linejoin="round" stroke-linecap="round" /><path d="M431 383l9 -1" fill="none" stroke="#a1b599" stroke-width="2" stroke-linejoin="round" stroke-linecap="round" /><path d="M315 268l4 -4" fill="none" stroke="#a1b599" stroke-width="2" stroke-linejoin="round" stroke-linecap="round" /><path d="M376 387l10 -4" fill="none" stroke="#a1b599" stroke-width="3" stroke-linejoin="round" stroke-linecap="round" /><path d="M316 400l13 -1" fill="none" stroke="#a1b599" stroke-width="4" stroke-linejoin="round" stroke-linecap="round" /><path d="M440 315l13 0" fill="none" stroke="#a1b599" stroke-width="3" stroke-linejoin="round" stroke-linecap="round" /><path d="M369 367l14 -3" fill="none" stroke="#b58244" stroke-width="4" stroke-linejoin="round" stroke-linecap="round" /><path d="M334 462l6 -2" fill="none" stroke="#b58244" stroke-width="5" stroke-linejoin="round" stroke-linecap="round" /><path d="M404 422l12 -4" fill="none" stroke="#7e8d59" stroke-width="2" stroke-linejoin="round" stroke-linecap="round" /><path d="M458 452l10 -2" fill="none" stroke="#ce9851" stroke-width="2" stroke-linejoin="round" stroke-linecap="round" /><path d="M298 239l10 -2" fill="none" stroke="#ce9851" stroke-width="3" stroke-linejoin="round" stroke-linecap="round" /><path d="M421 438l12 0" fill="none" stroke="#ce9851" stroke-width="4" stroke-linejoin="round" stroke-linecap="round" /><path d="M308 350l8 -1" fill="none" stroke="#7e8d59" stroke-width="2" stroke-linejoin="round" stroke-linecap="round" /><path d="M294 387l6 -2" fill="none" stroke="#b58244" stroke-width="5" stroke-linejoin="round" stroke-linecap="round" /><path d="M371 241l13 -2" fill="none" stroke="#d1c885" stroke-width="5" stroke-linejoin="round" stroke-linecap="round" /><path d="M354 419l11 0" fill="none" stroke="#d1c885" stroke-width="5" stroke-linejoin="round" stroke-linecap="round" /><path d="M360 369l13 -3" fill="none" stroke="#b58244" stroke-width="4" stroke-linejoin="round" stroke-linecap="round" /><path d="M370 340l15 -1" fill="none" stroke="#d1c885" stroke-width="2" stroke-linejoin="round" stroke-linecap="round" /><path d="M415 412l4 -4" fill="none" stroke="#a1b599" stroke-width="3" stroke-linejoin="round" stroke-linecap="round" /><path d="M407 466l15 -2" fill="none" stroke="#a1b599" stroke-width="5" stroke-linejoin="round" stroke-linecap="round" /><path d="M428 398l15 -1" fill="none" stroke="#7e8d59" stroke-width="2" stroke-linejoin="round" stroke-linecap="round" /><path d="M351 411l14 0" fill="none" stroke="#b58244" stroke-width="2" stroke-linejoin="round" stroke-linecap="round" /><path d="M337 425l4 -2" fill="none" stroke="#566e59" stroke-width="5" stroke-linejoin="round" stroke-linecap="round" /><path d="M426 421l12 0" fill="none" stroke="#566e59" stroke-width="5" stroke-linejoin="round" stroke-linecap="round" /><path d="M443 358l12 -2" fill="none" stroke="#d1c885" stroke-width="5" stroke-linejoin="round" stroke-linecap="round" /><path d="M338 303l8 -3" fill="none" stroke="#a1b599" stroke-width="3" stroke-linejoin="round" stroke-linecap="round" /><path d="M317 352l12 -1" fill="none" stroke="#a1b599" stroke-width="3" stroke-linejoin="round" stroke-linecap="round" /><path d="M406 372l4 -1" fill="none" stroke="#d1c885" stroke-width="3" stroke-linejoin="round" stroke-linecap="round" /><path d="M308 266l6 -1" fill="none" stroke="#566e59" stroke-width="5" stroke-linejoin="round" stroke-linecap="round" /><path d="M421 360l9 -4" fill="none" stroke="#d1c885" stroke-width="5" stroke-linejoin="round" stroke-linecap="round" /><path d="M297 423 304 266M336 433 339 254M425 433 426 258M460 438 458 292" fill="none" stroke="#584638" stroke-width="3" stroke-linejoin="round" stroke-linecap="round" /><path d="M232 201Q226 175 246 181Q268 172 260 200Q247 211 240 193" fill="#eac25f" stroke="#151719" stroke-width="2.5" stroke-linejoin="round" stroke-linecap="round" /><path d="M493 201Q487 175 507 181Q529 172 521 200Q508 211 501 193" fill="#eac25f" stroke="#151719" stroke-width="2.5" stroke-linejoin="round" stroke-linecap="round" /><path d="M227 529Q221 503 241 509Q263 500 255 528Q242 539 235 521" fill="#eac25f" stroke="#151719" stroke-width="2.5" stroke-linejoin="round" stroke-linecap="round" /><path d="M496 529Q490 503 510 509Q532 500 524 528Q511 539 504 521" fill="#eac25f" stroke="#151719" stroke-width="2.5" stroke-linejoin="round" stroke-linecap="round" /><path d="M240 225q-12 9 1 18M510 225q13 9 0 18" fill="none" stroke="#855025" stroke-width="3" stroke-linejoin="round" stroke-linecap="round" /><path d="M240 253q-12 9 1 18M510 253q13 9 0 18" fill="none" stroke="#855025" stroke-width="3" stroke-linejoin="round" stroke-linecap="round" /><path d="M240 281q-12 9 1 18M510 281q13 9 0 18" fill="none" stroke="#855025" stroke-width="3" stroke-linejoin="round" stroke-linecap="round" /><path d="M240 309q-12 9 1 18M510 309q13 9 0 18" fill="none" stroke="#855025" stroke-width="3" stroke-linejoin="round" stroke-linecap="round" /><path d="M240 337q-12 9 1 18M510 337q13 9 0 18" fill="none" stroke="#855025" stroke-width="3" stroke-linejoin="round" stroke-linecap="round" /><path d="M240 365q-12 9 1 18M510 365q13 9 0 18" fill="none" stroke="#855025" stroke-width="3" stroke-linejoin="round" stroke-linecap="round" /><path d="M240 393q-12 9 1 18M510 393q13 9 0 18" fill="none" stroke="#855025" stroke-width="3" stroke-linejoin="round" stroke-linecap="round" /><path d="M240 421q-12 9 1 18M510 421q13 9 0 18" fill="none" stroke="#855025" stroke-width="3" stroke-linejoin="round" stroke-linecap="round" /><path d="M240 449q-12 9 1 18M510 449q13 9 0 18" fill="none" stroke="#855025" stroke-width="3" stroke-linejoin="round" stroke-linecap="round" /><path d="M240 477q-12 9 1 18M510 477q13 9 0 18" fill="none" stroke="#855025" stroke-width="3" stroke-linejoin="round" stroke-linecap="round" /><path d="M278 187q10 -12 17 0M278 520q10 12 17 0" fill="none" stroke="#855025" stroke-width="3" stroke-linejoin="round" stroke-linecap="round" /><path d="M303 187q10 -12 17 0M303 520q10 12 17 0" fill="none" stroke="#855025" stroke-width="3" stroke-linejoin="round" stroke-linecap="round" /><path d="M328 187q10 -12 17 0M328 520q10 12 17 0" fill="none" stroke="#855025" stroke-width="3" stroke-linejoin="round" stroke-linecap="round" /><path d="M353 187q10 -12 17 0M353 520q10 12 17 0" fill="none" stroke="#855025" stroke-width="3" stroke-linejoin="round" stroke-linecap="round" /><path d="M378 187q10 -12 17 0M378 520q10 12 17 0" fill="none" stroke="#855025" stroke-width="3" stroke-linejoin="round" stroke-linecap="round" /><path d="M403 187q10 -12 17 0M403 520q10 12 17 0" fill="none" stroke="#855025" stroke-width="3" stroke-linejoin="round" stroke-linecap="round" /><path d="M428 187q10 -12 17 0M428 520q10 12 17 0" fill="none" stroke="#855025" stroke-width="3" stroke-linejoin="round" stroke-linecap="round" /><path d="M453 187q10 -12 17 0M453 520q10 12 17 0" fill="none" stroke="#855025" stroke-width="3" stroke-linejoin="round" stroke-linecap="round" /><path d="M478 187q10 -12 17 0M478 520q10 12 17 0" fill="none" stroke="#855025" stroke-width="3" stroke-linejoin="round" stroke-linecap="round" /></g><path d="M563 182 Q566 203 587 206 Q566 209 563 230 Q560 209 539 206 Q560 203 563 182Z" fill="#ffffff" stroke="#151719" stroke-width="3" stroke-linejoin="round" stroke-linecap="round" /><path d="M200 501 Q203 517 219 520 Q203 523 200 539 Q197 523 181 520 Q197 517 200 501Z" fill="#ffffff" stroke="#151719" stroke-width="3" stroke-linejoin="round" stroke-linecap="round" /></g></svg>